<svg version="1.1" id="Layer_1" xmlns="http://www.w3.org/2000/svg" xmlns:xlink="http://www.w3.org/1999/xlink" x="0px" y="0px"
	 width="100%" viewBox="0 0 1068 265" enable-background="new 0 0 1068 265" xml:space="preserve">
<path fill="#638D92" opacity="1.000000" stroke="none" 
	d="
M162.483307,224.671234 
	C157.006668,225.662659 152.723648,223.856003 148.492340,221.307632 
	C143.272934,218.164124 137.953705,213.296600 132.473007,213.003784 
	C126.898819,212.705994 122.121429,218.799438 116.868149,221.886703 
	C114.868378,223.061935 112.891525,224.201096 110.300125,224.826096 
	C96.274986,224.130646 82.603600,224.629852 68.491371,224.672974 
	C59.585800,226.024033 52.719856,223.156540 47.189484,216.746094 
	C43.817707,212.837753 40.635094,208.710312 36.885288,205.195786 
	C29.406681,198.186386 28.069845,189.284912 27.932753,179.762772 
	C27.815586,171.624435 26.757154,163.568726 25.012424,155.606140 
	C24.330059,152.491959 23.561958,149.169296 21.483366,146.937515 
	C13.445992,138.307892 14.801879,127.635925 15.580997,117.646629 
	C16.783075,102.234421 24.500471,91.005081 39.288853,84.282944 
	C52.568275,78.246727 57.534092,65.572083 59.784382,52.070042 
	C60.424232,48.230846 61.393345,45.148472 63.995972,42.365402 
	C68.178917,37.892460 72.219788,33.378895 74.807686,27.613720 
	C77.320389,22.016054 81.841545,18.497761 88.267845,17.892910 
	C89.375763,17.788633 90.746826,17.421038 91.461319,16.667660 
	C98.866150,8.859953 108.132576,10.736899 117.205750,11.544521 
	C118.525162,11.661965 119.881889,11.664969 121.150093,11.994877 
	C124.707138,12.920195 128.554459,9.976798 132.009125,13.224467 
	C138.240677,19.082634 144.110931,25.020754 146.081741,33.837715 
	C147.656494,40.882740 146.037262,48.138012 147.925476,55.146008 
	C148.878494,58.683098 150.119080,62.064579 151.728104,65.339539 
	C153.550217,69.048294 156.673965,70.531403 159.790817,67.895439 
	C169.038651,60.074402 180.981583,60.405636 191.560379,56.686001 
	C196.794556,54.845596 201.822571,56.062851 206.274689,59.049309 
	C208.341064,60.435413 210.286163,61.263187 212.724960,60.975555 
	C219.027527,60.232224 224.413132,62.478924 229.528366,65.917267 
	C235.039734,69.621872 240.570831,73.342316 247.673904,73.274796 
	C251.727844,73.236244 255.401688,72.404381 259.158844,70.641495 
	C265.070648,67.867638 271.730988,66.930145 276.862885,62.207424 
	C285.599548,54.167351 295.781952,48.212135 306.357330,42.891220 
	C311.458221,40.324757 314.286407,35.799809 317.132385,30.927134 
	C323.823395,19.471159 332.586029,10.797491 347.339966,10.877030 
	C354.353607,10.914841 361.240540,12.442531 368.254486,11.997426 
	C370.868408,11.831546 372.478119,13.747522 374.161407,15.318142 
	C385.611633,26.001823 391.694244,39.262970 392.970459,54.797386 
	C393.386169,59.857353 396.634735,61.964291 401.497650,60.400909 
	C405.575958,59.089771 408.863220,56.141266 413.416107,55.598339 
	C418.630585,54.976505 423.473358,55.568817 427.765961,58.266434 
	C436.082428,63.492737 445.527802,66.477386 453.780396,71.817139 
	C456.724426,73.722061 460.211365,74.241318 463.804321,74.202148 
	C477.967896,74.047707 492.133026,73.987541 506.297485,73.994926 
	C509.526489,73.996605 512.146851,73.068993 514.103271,70.450089 
	C514.500732,69.917976 514.954102,69.027405 515.417175,69.003998 
	C523.552368,68.592926 528.524841,60.086037 537.361938,60.907082 
	C544.793945,61.597580 552.356995,61.226292 559.841187,60.876869 
	C564.489441,60.659840 568.165588,61.936264 571.615051,65.023918 
	C575.681702,68.663971 578.269958,68.102890 581.338806,63.605087 
	C585.293213,57.809395 589.192505,52.101707 588.440796,44.437511 
	C588.233704,42.326134 589.229919,39.722378 590.484131,37.902935 
	C598.492554,26.285130 608.845459,18.323343 623.653381,17.988853 
	C629.483093,17.857170 635.326233,18.153460 641.148193,17.903986 
	C644.984009,17.739620 647.650574,19.260420 650.385193,21.786083 
	C659.060608,29.798717 668.060059,37.446209 679.590454,41.181404 
	C684.439697,42.752266 689.481934,42.186501 694.442444,42.063133 
	C705.774536,41.781300 717.247803,41.604057 728.186035,44.297634 
	C736.206482,46.272713 743.913086,49.206474 752.342041,49.059399 
	C754.311096,49.025040 755.849731,50.375511 756.557556,52.132343 
	C757.296936,53.967411 758.790527,54.406029 760.685303,55.066193 
	C761.197693,55.249981 761.354065,55.335899 761.740112,55.284195 
	C764.036438,55.097603 766.103088,55.048630 768.608215,55.069069 
	C779.717163,55.941963 790.402100,55.334377 801.515625,55.325695 
	C815.096863,55.124012 828.252014,54.557774 841.367676,55.963757 
	C842.350891,56.069157 843.601990,55.906521 844.263794,56.442429 
	C853.015259,63.528942 864.775940,60.071278 874.215332,65.254646 
	C883.545837,70.378258 894.378113,71.419754 904.504150,74.404549 
	C908.911926,75.703812 912.677612,77.974388 916.418945,80.397133 
	C929.535034,88.890541 943.144226,96.529671 956.946960,103.826790 
	C960.520752,105.716125 963.706116,107.982048 966.481384,110.925499 
	C972.336121,117.135147 979.218628,122.037239 986.219238,126.897583 
	C996.820984,134.258179 1004.812561,144.486359 1013.767822,153.630203 
	C1030.003784,170.207947 1043.208618,189.346298 1057.199097,207.702988 
	C1062.884644,215.162750 1066.460571,225.640015 1066.220825,236.115143 
	C1065.916138,249.425217 1051.708374,260.096375 1037.666138,257.812775 
	C1026.122070,255.935440 1017.242493,250.484741 1011.872803,239.735168 
	C1008.648865,233.281311 1003.412781,228.240082 999.030823,222.600098 
	C997.097473,220.111649 995.265930,217.531784 993.553040,214.886673 
	C989.447144,208.546280 981.584106,208.081619 976.986023,214.157532 
	C974.593506,217.318954 971.860107,219.268707 967.746155,218.902557 
	C966.965271,218.833054 965.839417,218.937897 965.387085,219.432587 
	C958.823547,226.611038 950.161194,225.497253 942.015442,224.789398 
	C933.507080,224.050049 926.363892,226.347580 919.625366,231.177292 
	C912.705566,236.137024 905.002258,238.634445 896.660767,235.779022 
	C890.420593,233.642868 885.618286,228.812302 881.106628,224.307098 
	C863.357422,206.583298 840.072021,198.996429 817.972229,189.395721 
	C809.329407,185.641052 799.492432,185.400345 790.009521,186.017471 
	C781.706970,186.557785 775.357300,191.049759 772.384277,198.707748 
	C769.800537,205.363113 766.821411,210.488876 759.676941,213.483658 
	C755.871338,215.078873 752.631226,218.815933 748.629700,220.855057 
	C742.505371,223.975906 736.124756,225.264816 729.415161,223.049820 
	C714.930908,218.268188 700.713928,219.030197 686.325989,224.866180 
	C677.269165,224.103668 668.578491,224.634979 659.472290,224.692749 
	C650.026917,225.752289 641.240845,227.884018 632.479248,230.090836 
	C620.183594,233.187759 608.330322,231.939682 596.787781,226.863754 
	C595.139038,226.138702 593.391052,225.639038 591.318848,224.943939 
	C587.012512,224.059937 583.033020,224.527054 579.078552,224.520203 
	C558.708069,224.484894 538.337341,224.438309 517.507324,224.671356 
	C513.373047,225.227524 509.967865,224.910675 506.477356,223.149200 
	C500.796204,220.282196 494.532410,221.149506 489.002472,223.240341 
	C479.219635,226.939102 469.355591,224.817078 459.521362,224.955582 
	C457.321899,224.986572 455.393829,223.716080 453.631012,222.464355 
	C446.652771,217.509369 438.471252,216.359192 430.358917,214.910110 
	C426.584473,214.235886 423.478699,215.368759 420.777527,217.895538 
	C415.149658,223.160156 408.693085,225.149078 400.827332,225.052811 
	C371.353424,224.692123 341.872162,224.935165 312.393677,224.943161 
	C310.897430,224.943573 309.126129,225.372009 307.949707,224.736725 
	C300.512573,220.720642 293.230804,224.136459 285.815277,224.602524 
	C274.865540,225.290741 263.847260,224.826294 252.860977,225.015137 
	C244.810242,225.153519 237.165756,224.587494 229.811646,220.326630 
	C224.438751,217.213654 218.004623,217.336914 211.858475,218.993103 
	C211.256088,219.155426 210.288544,219.335846 210.170258,219.718170 
	C207.905273,227.039246 201.932892,224.865692 196.867386,224.983200 
	C195.536270,225.014053 194.203232,224.961777 192.405914,224.878632 
	C182.271622,224.102249 172.590607,224.643127 162.483307,224.671234 
z"/>
<path fill="#769396" opacity="1.000000" stroke="none" 
	d="
M517.509033,224.879639 
	C517.986023,223.921371 519.165100,224.003799 520.321777,224.004074 
	C543.169800,224.009476 566.017761,224.013977 588.865784,224.035431 
	C589.347046,224.035873 589.828247,224.234665 590.629089,224.596893 
	C566.622559,224.884598 542.296387,224.916367 517.509033,224.879639 
z"/>
<path fill="#759296" opacity="1.000000" stroke="none" 
	d="
M68.507904,224.882416 
	C69.479179,223.568085 71.220428,224.010742 72.839813,224.019745 
	C84.987038,224.087418 97.133965,224.209427 109.609947,224.554962 
	C96.282303,224.847610 82.625702,224.899734 68.507904,224.882416 
z"/>
<path fill="#749498" opacity="1.000000" stroke="none" 
	d="
M801.490356,55.118927 
	C797.678772,56.955616 793.214355,55.832714 788.851196,55.933353 
	C782.467957,56.080589 776.074036,55.769592 769.365662,55.396187 
	C779.707397,55.109913 790.368164,55.081345 801.490356,55.118927 
z"/>
<path fill="#759499" opacity="1.000000" stroke="none" 
	d="
M162.511688,224.878815 
	C171.771149,223.150925 181.535034,224.103806 191.613708,224.565704 
	C182.284683,224.855835 172.628616,224.902084 162.511688,224.878815 
z"/>
<path fill="#769599" opacity="1.000000" stroke="none" 
	d="
M659.511353,224.909500 
	C667.768372,223.120026 676.540527,224.107773 685.621704,224.577576 
	C677.288269,224.875061 668.630554,224.923447 659.511353,224.909500 
z"/>
<path fill="#749498" opacity="1.000000" stroke="none" 
	d="
M761.736694,55.101448 
	C761.969727,55.146576 761.653625,55.488728 761.653625,55.488728 
	C761.653625,55.488728 761.224304,55.427662 761.132812,55.295860 
	C761.041260,55.164059 761.503601,55.056324 761.736694,55.101448 
z"/>
<path fill="#030303" opacity="1.000000" stroke="none" 
	d="
M735.750305,164.917694 
	C739.393982,166.789749 743.117859,166.200867 746.654785,166.878616 
	C757.503601,168.957474 763.019592,178.276596 758.948608,188.579224 
	C755.185852,198.101639 747.715820,203.544434 737.874451,204.902985 
	C713.668457,208.244522 689.360413,210.847092 665.156677,214.203140 
	C652.975891,215.892120 641.046021,216.674377 629.320557,212.080231 
	C627.334839,211.302216 625.609436,211.747650 623.782898,213.034164 
	C615.329895,218.988007 606.127625,220.432877 596.304626,216.971756 
	C593.855347,216.108780 591.497437,216.192169 588.960266,216.539841 
	C575.586426,218.372498 563.021545,216.363678 552.247742,207.647964 
	C549.760559,205.635895 548.476685,206.257553 546.433105,208.066833 
	C540.014587,213.749512 532.677673,217.258270 523.824951,217.095520 
	C514.338806,216.921082 508.222565,212.955063 505.631989,203.855423 
	C504.340393,199.318832 502.802246,200.040146 499.638519,201.790710 
	C490.615601,206.783295 481.384735,211.244217 471.105835,213.324295 
	C459.698181,215.632782 450.852417,212.038788 443.971558,202.932510 
	C441.151062,199.199799 438.755402,195.199860 436.950562,190.890656 
	C435.950287,188.502304 435.013428,188.418762 433.084076,190.071533 
	C425.876526,196.245895 418.553497,202.264145 410.543579,207.428665 
	C392.241272,219.229324 373.687744,220.853195 354.769684,209.090042 
	C352.455658,207.651199 350.950775,208.153717 348.979980,209.534470 
	C342.605957,214.000229 335.672363,217.083939 327.697815,217.009903 
	C317.550659,216.915710 310.849274,210.691330 309.810211,200.576202 
	C309.696869,199.472488 310.275879,197.970917 309.128479,197.346634 
	C307.645630,196.539841 306.771698,198.120743 305.804321,198.881424 
	C295.665863,206.853577 285.141693,213.896439 272.088501,216.447906 
	C252.850998,220.208191 235.591354,213.081985 225.386292,196.338928 
	C223.610870,193.426102 222.630325,193.184845 220.053650,195.386383 
	C213.226624,201.219452 206.451645,207.160995 198.386566,211.347031 
	C180.970398,220.386642 164.562607,219.089676 148.921921,207.032730 
	C142.894012,202.385986 140.389771,195.659927 137.399490,189.224869 
	C135.736618,185.646408 134.749268,185.735413 132.086594,188.431686 
	C125.888336,194.708145 119.470741,200.795700 112.822784,206.593765 
	C103.169487,215.012970 91.782616,218.411163 79.027069,217.016815 
	C63.585396,215.328827 52.303288,201.206314 52.008553,183.102692 
	C51.801533,170.386826 54.386787,157.948380 56.322227,145.479294 
	C56.919025,141.634415 55.567787,140.887543 52.635151,140.389969 
	C49.181370,139.803970 45.840263,138.910858 42.752720,137.129715 
	C30.431801,130.022079 29.190035,114.768745 40.239323,105.630074 
	C45.910816,100.939270 52.723339,99.460579 59.787472,99.273521 
	C67.871811,99.059441 70.853600,97.228439 72.922569,89.314575 
	C76.620049,75.171585 81.153580,61.248951 84.682556,47.087769 
	C88.119255,33.296917 109.058365,24.776930 121.994919,31.091932 
	C129.354126,34.684353 132.835846,41.999863 130.418411,50.350761 
	C127.417206,60.718235 123.822289,70.913635 120.497612,81.187813 
	C119.730713,83.557770 119.011299,85.943245 118.285446,88.326279 
	C117.387878,91.273071 117.627548,93.476974 121.376854,94.105240 
	C123.136299,94.400070 124.825302,95.310158 126.461060,96.114594 
	C133.759964,99.704086 136.302368,104.884605 134.747345,112.877319 
	C134.429932,114.508743 134.027618,116.123657 133.720398,118.150177 
	C134.182312,121.243179 132.389282,122.911774 130.804688,124.560844 
	C126.188194,129.365173 120.566719,132.526901 114.057648,133.892853 
	C109.443489,134.861145 106.762978,137.478104 105.704796,142.020630 
	C104.664070,146.488220 103.323288,150.893845 102.686920,156.636169 
	C111.455620,149.846207 121.016891,145.974731 124.611267,135.136719 
	C127.294708,127.045433 134.842346,123.760521 142.703033,121.001945 
	C147.938980,115.037285 150.748383,107.871597 154.806885,101.454391 
	C159.103470,94.660728 163.711151,88.212517 170.109024,83.174385 
	C187.306442,69.631912 209.985809,70.253143 226.384064,84.758247 
	C231.035248,88.872467 234.987778,93.604813 238.502487,98.666519 
	C240.349716,101.326820 241.798737,101.240356 244.007141,99.265785 
	C246.610794,96.937790 249.513641,94.946571 252.145920,92.648018 
	C260.782104,85.106758 270.982605,81.688438 282.249451,80.912888 
	C285.842316,80.665573 289.130066,79.899696 290.709351,75.962219 
	C295.483978,64.057800 304.621216,59.201916 317.120026,59.682468 
	C325.808716,60.016533 325.812805,59.910793 327.006378,51.452148 
	C329.469543,33.996532 342.143707,24.552874 358.761353,27.791174 
	C368.530731,29.694939 373.684418,36.287563 372.662872,46.433491 
	C371.213684,60.826527 369.476532,75.193428 367.632385,89.541924 
	C367.140381,93.369843 367.031128,97.150940 367.039764,101.986862 
	C371.561432,97.929352 375.582977,94.379868 379.537750,90.757454 
	C385.073975,85.686523 390.704102,80.722519 397.332642,77.108635 
	C408.213013,71.176674 419.307983,70.085030 430.757477,75.698601 
	C437.150055,78.832802 440.500610,84.619377 444.002563,90.247139 
	C446.788086,94.723595 449.143555,99.467667 451.690277,104.093582 
	C453.736908,103.431442 453.934174,101.762299 454.632202,100.573715 
	C462.327209,87.470169 474.672943,81.901131 489.357849,85.116928 
	C496.593170,86.701363 499.895844,92.133987 502.221619,98.927536 
	C504.069824,102.681404 502.269836,105.788620 501.331360,108.858856 
	C497.786224,120.456879 493.528992,131.818390 489.590546,143.286377 
	C488.949097,145.154083 488.075714,146.985916 488.137207,149.130920 
	C490.383026,148.792801 490.514923,146.707504 491.194061,145.308090 
	C498.013123,131.257065 505.848694,117.730072 512.608643,103.650627 
	C513.399414,102.003586 514.196716,100.341667 516.159790,99.156204 
	C522.134033,89.170593 529.409241,81.496750 541.018860,78.667870 
	C557.639221,74.617996 567.504639,83.198486 565.234131,100.085190 
	C564.772339,103.519905 564.484253,106.977989 564.047302,111.069679 
	C568.242676,108.338089 571.957153,105.906395 575.684998,103.495483 
	C581.974731,99.427757 588.292969,95.416969 595.245300,92.520233 
	C600.614685,90.283028 602.968140,86.235916 603.037292,80.379860 
	C603.141479,71.557762 603.700073,62.741573 604.025208,53.921387 
	C604.272766,47.206581 607.259216,42.170940 613.100647,38.843735 
	C621.618347,33.992126 630.489868,32.312046 639.872314,36.087158 
	C644.509705,37.953033 647.298218,41.183224 648.181702,46.392452 
	C649.562195,54.531830 648.975037,62.680428 649.001831,70.824188 
	C649.012024,73.939186 649.449768,75.272591 653.121033,74.667717 
	C680.795410,70.108017 708.706238,68.689354 736.712280,69.032318 
	C750.734009,69.204033 759.699707,79.224678 757.039307,91.323708 
	C756.268127,94.830902 754.371277,97.748566 752.107544,100.447800 
	C750.716248,102.106873 749.245789,103.699593 747.813049,105.324059 
	C745.499939,107.946953 742.254333,110.225082 741.119690,113.285431 
	C739.789124,116.874268 744.259705,118.913254 745.810303,121.870308 
	C750.343689,130.515747 748.200012,139.743713 739.744507,145.504547 
	C736.882019,147.454773 733.592651,148.778519 730.294128,150.668427 
	C727.904663,153.146378 725.029907,153.541290 722.225159,153.446945 
	C710.253357,153.044205 706.011414,155.929016 698.251648,167.551331 
	C707.034851,166.845490 715.312561,165.913361 723.582397,164.946075 
	C727.549255,164.482101 731.490662,163.905045 735.750305,164.917694 
z"/>
<path fill="#35FCFC" opacity="1.000000" stroke="none" 
	d="
M954.176636,154.809326 
	C921.598999,125.781021 884.617310,106.500084 841.634583,99.423683 
	C832.552917,97.928535 823.403809,97.844780 814.239929,97.935242 
	C802.574829,98.050392 790.909180,98.267998 779.244568,98.222893 
	C769.005737,98.183311 762.159668,91.614326 762.913574,82.857552 
	C763.368530,77.573700 766.438049,73.828636 770.739929,71.314705 
	C775.947388,68.271606 781.704468,66.461182 787.774048,66.072128 
	C858.490723,61.539177 919.470276,84.951088 972.964478,130.278885 
	C1000.925049,153.970993 1023.771423,182.033478 1044.403442,212.061554 
	C1048.396118,217.872482 1050.769775,224.464310 1052.165283,231.393677 
	C1053.509277,238.067062 1051.881958,242.449966 1046.988281,245.084595 
	C1041.554688,248.009933 1035.738892,247.529861 1031.440186,242.850296 
	C1026.837158,237.839645 1022.905518,232.214447 1018.650452,226.881760 
	C998.587952,201.738770 977.886841,177.165680 954.176636,154.809326 
z"/>
<path fill="#35FCFC" opacity="1.000000" stroke="none" 
	d="
M808.961548,134.956421 
	C799.877686,134.249649 791.256836,133.596390 782.645630,132.833893 
	C781.005554,132.688660 779.347107,132.267532 777.794922,131.704346 
	C773.315125,130.079041 770.737793,126.723061 770.094299,122.093910 
	C769.460754,117.536949 772.103088,114.493797 775.647644,112.244179 
	C779.566772,109.756775 784.063843,109.204201 788.590454,109.146988 
	C840.085815,108.496201 885.615601,125.001671 925.610107,157.122055 
	C936.522339,165.885880 947.207825,174.974655 954.694702,187.102585 
	C956.005005,189.225098 957.260498,191.391953 958.380859,193.619034 
	C960.770874,198.369690 960.210571,204.654373 957.281189,207.158661 
	C954.479431,209.553787 948.621399,209.047485 944.275330,205.836945 
	C936.762756,200.287262 929.811157,194.073380 923.026489,187.661179 
	C906.570679,172.108841 888.451355,158.998703 867.640076,149.780136 
	C849.058533,141.549240 829.630005,136.770752 808.961548,134.956421 
z"/>
<path fill="#35FCFC" opacity="1.000000" stroke="none" 
	d="
M866.706421,171.240082 
	C882.164551,179.466034 895.436951,189.913025 907.065125,202.478882 
	C910.197571,205.863968 911.776306,217.478043 909.624207,221.355255 
	C907.765747,224.703491 903.379028,225.949646 898.550903,224.380569 
	C892.326843,222.357834 887.905212,217.644943 883.142090,213.571884 
	C868.247864,200.835709 852.528687,189.544662 833.628479,183.415909 
	C821.276428,179.410507 808.670654,176.553711 795.787659,174.927734 
	C792.802246,174.550949 789.905579,173.893387 787.177673,172.566284 
	C781.190308,169.653458 778.176575,165.018127 779.166748,160.180099 
	C780.113342,155.555023 785.662048,151.292633 791.535156,150.894043 
	C799.732910,150.337677 807.806580,151.464096 815.788147,153.182251 
	C833.410583,156.975708 850.438232,162.492050 866.706421,171.240082 
z"/>
<path fill="#EDEDEE" opacity="1.000000" stroke="none" 
	d="
M142.824982,120.618416 
	C141.418365,122.978928 139.045288,123.814270 136.772690,124.787323 
	C130.436523,127.500290 126.117661,132.158707 124.354469,138.751404 
	C123.474640,142.041168 121.862755,144.458252 119.252701,146.366867 
	C113.396400,150.649323 107.508904,154.889099 100.653931,159.856552 
	C101.948372,151.315384 103.394112,143.994125 106.136841,137.026810 
	C107.128166,134.508545 109.596359,133.407211 112.469833,132.883575 
	C121.324951,131.269882 128.522446,126.931770 133.528885,118.799423 
	C136.564026,119.912209 139.633118,119.839371 142.824982,120.618416 
z"/>
<path fill="#EDEDED" opacity="1.000000" stroke="none" 
	d="
M516.009766,98.974434 
	C507.760590,115.900093 499.061005,132.819290 490.277954,149.695068 
	C489.660461,150.881500 489.723907,153.464920 487.079926,152.234146 
	C484.709076,151.130508 486.114349,149.482819 486.596497,148.039154 
	C491.512634,133.319427 496.457733,118.609413 501.373199,103.889488 
	C501.791290,102.637413 502.054321,101.333542 502.399719,99.658928 
	C506.817078,100.473618 511.153351,98.655426 516.009766,98.974434 
z"/>
<path fill="#EEEEEE" opacity="1.000000" stroke="none" 
	d="
M735.707520,165.031708 
	C722.508667,166.588318 708.995117,167.982956 694.264099,169.503250 
	C698.240173,164.690521 701.332214,160.662811 704.733337,156.915649 
	C707.785828,153.552582 711.852234,151.936279 716.375916,152.244873 
	C720.763794,152.544174 724.990112,151.929886 729.655701,150.975632 
	C729.942749,156.318161 729.003723,161.989700 735.707520,165.031708 
z"/>
<path fill="#F1F1F1" opacity="1.000000" stroke="none" 
	d="
M546.560181,146.538681 
	C544.299133,161.754288 542.264038,176.556610 539.966125,191.318054 
	C538.672913,199.625839 531.839233,204.647903 523.600342,203.987350 
	C520.680725,203.753265 519.098755,202.602722 518.675232,199.541336 
	C517.557800,191.464859 519.781921,183.689072 520.600525,175.794724 
	C521.249084,169.540771 522.290527,163.327591 522.376404,156.662003 
	C515.635437,165.181702 509.013062,173.798630 502.124512,182.197281 
	C492.772430,193.599548 481.251678,201.129593 465.914978,201.105087 
	C454.767517,201.087265 449.733063,195.808121 449.040283,184.693100 
	C447.763763,164.210953 452.263336,144.812134 459.293579,125.813911 
	C461.473328,119.923363 463.518250,113.981956 465.762054,108.116295 
	C468.825287,100.108643 476.937225,95.569092 485.298706,97.033844 
	C489.577728,97.783432 489.461212,100.945457 488.687256,103.940643 
	C487.488831,108.578407 485.793365,113.085472 484.395447,117.674385 
	C480.540375,130.328995 476.885315,143.047119 472.839447,155.639984 
	C470.700806,162.296524 470.530457,168.998795 470.843292,175.836945 
	C470.992737,179.103790 472.215210,181.879089 475.132904,183.134567 
	C478.196533,184.452820 480.480560,182.083008 482.384369,180.087936 
	C491.275269,170.770859 498.439880,160.162216 504.954590,149.111649 
	C513.632324,134.392044 521.609314,119.268250 528.880920,103.829910 
	C533.269165,94.513260 541.052612,92.437309 549.795654,91.224045 
	C552.732666,90.816467 551.809387,93.191597 551.947205,94.603966 
	C552.895508,104.327560 550.642822,113.810562 549.630066,123.381439 
	C548.826477,130.976212 547.673828,138.534058 546.560181,146.538681 
z"/>
<path fill="#F1F1F1" opacity="1.000000" stroke="none" 
	d="
M626.952942,156.978195 
	C626.221313,165.954681 624.039856,174.229004 625.704041,183.099579 
	C627.535034,192.859497 615.056091,205.909332 605.224670,205.941757 
	C604.195801,205.945145 603.162598,205.922470 602.451355,205.124374 
	C598.502625,200.693726 593.727905,202.589996 589.121338,203.361694 
	C583.167175,204.359100 577.120361,204.712784 571.266357,203.457352 
	C558.221985,200.659912 549.927429,189.436234 550.285095,174.111099 
	C550.905029,147.546219 563.508667,127.339211 584.975037,112.388832 
	C592.507690,107.142738 600.861572,103.494186 609.989075,101.921501 
	C612.917297,101.416977 613.944885,99.979034 614.081299,96.931519 
	C614.616699,84.970314 615.420532,73.019913 616.227905,61.072479 
	C616.869324,51.580219 620.100708,48.116779 629.395996,46.622784 
	C634.549194,45.794521 637.284729,47.775528 637.021362,52.881447 
	C636.344604,66.000984 635.687988,79.137146 634.407104,92.206268 
	C632.528625,111.373337 630.118591,130.488403 627.919189,149.623810 
	C627.653931,151.931702 627.289978,154.228256 626.952942,156.978195 
z"/>
<path fill="#F0F0F0" opacity="1.000000" stroke="none" 
	d="
M709.147400,181.085175 
	C718.540222,180.223206 727.478516,179.377335 736.419250,178.558929 
	C737.730835,178.438873 739.159363,178.106796 740.349854,178.472244 
	C742.662659,179.182220 746.449280,179.324951 746.644043,181.594177 
	C746.889221,184.451691 745.443298,187.783981 742.552124,189.672546 
	C739.278931,191.810745 735.547791,192.503876 731.728577,192.989029 
	C714.760132,195.144470 697.807800,197.426788 680.835083,199.547089 
	C670.284302,200.865128 659.709656,201.994888 649.141357,203.169144 
	C645.166626,203.610794 640.317322,202.783661 638.701965,200.015350 
	C637.204224,197.448730 639.994995,193.225082 642.291687,190.321320 
	C653.751160,175.832870 665.247559,161.373627 676.690430,146.872131 
	C677.567383,145.760788 678.974731,144.906952 678.988586,142.778778 
	C674.893799,142.476776 670.727600,143.309158 666.750000,142.107758 
	C664.102783,141.308182 660.199036,140.564713 660.426025,137.729889 
	C660.672607,134.650665 662.472412,131.199875 666.862366,130.569427 
	C673.253479,129.651627 679.579102,128.271149 685.925110,127.048889 
	C690.948486,126.081367 695.180603,123.840240 698.669189,119.926735 
	C705.497192,112.267159 711.935974,104.352440 717.814697,94.756752 
	C706.499573,95.647041 696.118347,96.417603 685.746094,97.293617 
	C676.298523,98.091530 666.868713,99.112144 657.414917,99.817947 
	C653.005493,100.147156 649.106812,97.863548 644.881287,96.672386 
	C648.385376,88.892517 655.072937,87.082703 662.651306,86.256935 
	C681.662598,84.185364 700.621338,81.440445 719.774963,81.197144 
	C727.172852,81.103180 734.735535,80.694778 741.751465,84.279526 
	C744.039551,85.448601 744.590637,86.505714 743.568665,88.829132 
	C742.219788,91.895988 740.550049,94.674744 738.335449,97.213188 
	C730.504089,106.189911 722.776611,115.257286 714.582031,124.787743 
	C720.920898,125.426720 726.801270,124.101639 732.189880,127.067078 
	C734.643188,128.417130 734.882446,129.352692 733.535583,131.779373 
	C731.535706,135.382706 729.097595,137.599167 724.813965,138.257996 
	C719.720093,139.041443 714.684753,140.021469 709.499634,140.022049 
	C704.615845,140.022598 700.273865,141.580521 697.174438,145.504211 
	C686.961609,158.433182 676.833740,171.429306 666.688721,184.411728 
	C666.420349,184.755081 666.329285,185.236984 665.910828,186.241821 
	C680.460510,184.496628 694.577026,182.803391 709.147400,181.085175 
z"/>
<path fill="#F1F1F1" opacity="1.000000" stroke="none" 
	d="
M381.448334,106.458572 
	C387.785553,99.769257 394.623627,94.249664 402.110138,89.519485 
	C411.593048,83.527939 427.147705,82.567390 434.437592,97.145393 
	C438.133545,104.536369 442.147125,111.759819 445.071747,119.517410 
	C448.594269,128.860901 449.401306,138.503815 445.822784,147.765152 
	C435.308716,174.975708 416.271057,194.056946 388.553131,203.318054 
	C372.613617,208.643784 358.192017,200.777405 354.461060,186.464005 
	C353.137543,181.386398 353.603180,176.161987 354.131653,171.067612 
	C356.305084,150.116241 362.407898,130.553650 375.450592,113.612350 
	C377.275543,111.241890 379.284271,109.012901 381.448334,106.458572 
z"/>
<path fill="#F1F1F1" opacity="1.000000" stroke="none" 
	d="
M100.527275,200.654068 
	C93.930573,203.570847 87.672180,206.097412 80.547028,204.287811 
	C70.915802,201.841751 65.111862,194.885056 65.041542,184.988312 
	C64.948822,171.939407 68.160851,159.324066 70.426933,146.594864 
	C71.441498,140.895752 72.742004,135.241013 74.102463,129.611969 
	C75.342949,124.479332 75.442360,124.633675 69.968399,125.331856 
	C64.202164,126.067307 58.394157,126.488983 52.597855,126.968651 
	C50.032719,127.180916 47.299965,127.065285 46.219952,124.249725 
	C45.165489,121.500778 46.458611,119.134315 48.387703,117.028687 
	C52.693989,112.328331 58.455341,111.395630 64.282623,111.075371 
	C79.623085,110.232246 79.550568,110.310699 83.953575,95.779396 
	C88.217697,81.706459 92.547279,67.650887 97.076782,53.661732 
	C99.815834,45.202301 104.963753,41.929615 113.499855,42.145775 
	C116.063713,42.210701 116.864700,42.942127 117.028923,45.551636 
	C117.340431,50.501465 116.055458,55.089020 114.714050,59.708359 
	C110.654655,73.687523 106.679474,87.692642 102.435692,101.615784 
	C101.241608,105.533394 101.185394,107.372849 106.183319,106.493217 
	C109.756302,105.864365 113.490677,106.031799 117.151031,106.065147 
	C119.366882,106.085342 121.614563,106.673912 122.073936,109.318115 
	C122.513275,111.847015 121.514008,113.732353 119.084724,115.004089 
	C113.921211,117.707207 108.650848,120.034325 102.840599,120.931091 
	C98.482407,121.603737 95.082748,124.022079 94.300575,128.237000 
	C91.611115,142.729736 87.438850,156.937439 85.862518,171.635757 
	C85.509102,174.931107 85.546013,178.269424 86.576614,181.512207 
	C88.870346,188.729401 93.551590,189.955841 98.534416,184.343582 
	C104.280403,177.871765 109.660286,171.076462 115.318214,164.524445 
	C120.557579,158.457153 127.651993,157.318863 134.107300,161.196304 
	C135.666092,162.132614 136.310822,162.847992 134.881744,164.529526 
	C127.451065,173.272995 121.481674,183.197983 113.231346,191.285461 
	C109.523727,194.919891 105.423645,198.004501 100.527275,200.654068 
z"/>
<path fill="#F1F1F1" opacity="1.000000" stroke="none" 
	d="
M224.892334,168.188095 
	C224.011429,172.980057 221.666183,176.863205 218.123444,180.091522 
	C211.972580,185.696426 205.971069,191.495148 199.139328,196.268173 
	C191.229263,201.794571 182.479172,205.624847 172.670547,204.612534 
	C158.201889,203.119247 148.563568,191.669846 148.065445,176.109177 
	C147.841858,169.124695 147.825546,162.120880 148.085281,155.139587 
	C148.197617,152.119827 147.200424,150.624695 144.396210,149.921738 
	C142.967117,149.563507 141.574783,148.964447 140.248764,148.306961 
	C136.350540,146.374100 135.674149,142.573700 138.631851,139.377914 
	C140.138809,137.749649 142.097641,136.693817 144.168594,136.162872 
	C150.297928,134.591476 154.163986,130.682663 156.639984,125.034111 
	C160.174774,116.970154 164.466537,109.245056 169.447861,102.050697 
	C179.681427,87.270721 200.044388,78.740669 217.706146,93.591347 
	C222.731400,97.816765 226.715424,102.906410 229.991852,108.546951 
	C231.997025,111.998978 231.494553,115.230690 228.464050,117.922333 
	C225.820770,120.270035 222.660950,121.722519 219.394028,122.971016 
	C206.893280,127.748314 194.487000,132.795059 181.860611,137.212906 
	C174.328613,139.848267 170.121460,144.029846 169.418945,152.417633 
	C168.544525,162.857925 168.676025,172.973419 173.094849,182.636749 
	C176.058670,189.118271 179.671432,190.244141 185.774338,186.550385 
	C192.483704,182.489548 198.718124,177.623260 204.177292,172.100922 
	C210.340759,165.866150 216.904999,165.181732 224.892334,168.188095 
z"/>
<path fill="#F1F1F1" opacity="1.000000" stroke="none" 
	d="
M267.207001,97.064705 
	C275.376587,92.741821 283.572052,92.610283 291.641754,95.581093 
	C295.281982,96.921211 296.187683,95.905823 297.272919,92.749519 
	C298.826935,88.229858 300.426727,83.617699 303.280762,79.715820 
	C306.492889,75.324425 310.284698,71.472527 316.433716,72.299408 
	C321.816559,73.023262 323.033264,74.736992 321.579376,80.020172 
	C319.956787,85.916275 317.956055,91.712852 315.990295,97.508774 
	C313.708099,104.237579 311.399994,110.962227 308.878815,117.603516 
	C307.435486,121.405685 305.154297,124.624405 300.966187,126.007553 
	C293.440094,128.493103 290.570282,127.312523 287.307098,120.237282 
	C287.237701,120.086807 287.182526,119.929115 287.129578,119.771812 
	C283.032379,107.606445 275.700104,105.314735 266.438019,116.978828 
	C252.446075,134.599411 248.209183,154.690292 253.256393,176.478531 
	C256.144653,188.946793 267.331390,192.589722 277.893188,185.110519 
	C284.901367,180.147797 290.233673,173.502411 295.815704,167.103302 
	C299.509644,162.868652 302.857391,158.208969 308.771851,156.619858 
	C311.476166,155.893250 314.000397,155.956345 316.557190,157.005020 
	C319.674438,158.283539 320.627533,160.650711 318.889496,163.366669 
	C307.426575,181.279495 294.435486,197.410507 272.538055,203.340179 
	C249.973450,209.450531 232.123047,195.915024 230.874680,172.566589 
	C229.435776,145.655014 237.690262,122.941681 257.347839,104.439865 
	C260.265472,101.693779 263.396179,99.232475 267.207001,97.064705 
z"/>
<path fill="#F1F1F1" opacity="1.000000" stroke="none" 
	d="
M331.379181,204.545807 
	C323.828186,205.201004 321.374969,202.980377 322.174225,195.858658 
	C324.211212,177.707504 326.522064,159.587265 328.671021,141.448456 
	C330.820129,123.308495 332.904388,105.160835 335.019806,87.016876 
	C336.385254,75.305565 337.589539,63.572189 339.181335,51.891666 
	C340.274414,43.870510 347.185791,39.029274 355.367462,39.851700 
	C359.093048,40.226196 359.956726,42.632992 359.980377,45.735882 
	C360.045258,54.246464 358.430542,62.607475 357.551758,71.028458 
	C355.534973,90.354332 353.191956,109.646248 350.963715,128.949905 
	C348.773682,147.922806 346.560547,166.893021 344.362640,185.865005 
	C344.209717,187.185165 344.063568,188.507858 343.974915,189.833435 
	C343.392609,198.544434 340.370911,202.156723 331.379181,204.545807 
z"/>
<path fill="#648D92" opacity="1.000000" stroke="none" 
	d="
M295.208984,139.048828 
	C301.093903,138.391983 306.101532,136.082504 311.362366,134.695953 
	C313.293793,134.186905 315.922607,131.855438 316.755188,135.731720 
	C317.405731,138.760284 317.986023,142.280212 313.738190,143.533737 
	C311.530090,144.185333 309.234589,144.565994 306.959900,144.961807 
	C300.103088,146.154968 294.586182,149.590134 290.269073,154.963974 
	C285.165771,161.316467 280.371613,167.936188 274.293091,173.436096 
	C272.365051,175.180588 270.331879,177.588257 267.483795,176.481750 
	C264.750031,175.419678 264.502228,172.388077 263.960754,169.757889 
	C260.589020,153.379242 266.959656,139.396667 274.561340,124.964676 
	C279.273773,133.378723 283.667786,141.304031 295.208984,139.048828 
z"/>
<path fill="#648C91" opacity="1.000000" stroke="none" 
	d="
M652.554504,157.619492 
	C648.672424,162.421692 645.006042,166.948715 641.348022,171.482513 
	C640.716980,172.264694 640.119324,173.190201 638.930176,172.760880 
	C637.699707,172.316650 638.031616,171.162598 637.975586,170.208145 
	C637.523926,162.510269 639.451233,155.032776 640.180664,147.446289 
	C641.115417,137.725021 642.739258,128.071686 643.945007,118.374016 
	C644.449158,114.319046 646.217407,112.161957 650.600159,111.931770 
	C662.532104,111.305099 674.308899,108.703918 686.318542,109.004608 
	C687.521667,109.034729 689.272949,108.200455 689.849792,109.805534 
	C690.431030,111.422836 689.005920,112.594406 687.876099,113.522537 
	C685.458679,115.508400 682.568176,116.154320 679.486206,116.021027 
	C674.112000,115.788605 668.893921,116.984192 663.808289,118.343147 
	C647.878113,122.600014 643.454773,135.343536 653.067627,149.434937 
	C655.194458,152.552567 655.606995,154.801712 652.554504,157.619492 
z"/>
<path fill="#EFEFEF" opacity="1.000000" stroke="none" 
	d="
M206.118683,142.139343 
	C211.542786,140.192474 216.589615,138.349472 221.856781,136.426010 
	C221.617996,145.265305 219.378510,151.887466 210.011108,154.436798 
	C204.225876,156.011246 199.871811,160.571854 195.147385,164.203049 
	C192.136444,166.517242 189.191376,168.826294 185.198929,169.491150 
	C182.964462,169.863251 182.069046,169.513382 182.078766,167.237259 
	C182.094376,163.583176 181.836594,159.912643 182.103745,156.279175 
	C182.377350,152.557861 185.059418,150.437149 188.250305,149.121246 
	C194.041290,146.733063 199.906906,144.525909 206.118683,142.139343 
z"/>
<path fill="#040404" opacity="1.000000" stroke="none" 
	d="
M602.991455,117.886108 
	C605.933716,116.882507 608.619263,113.620804 610.891907,115.222130 
	C613.759277,117.242500 611.629028,121.038155 611.253174,124.033577 
	C609.061707,141.497696 607.231995,159.014130 603.999084,176.333008 
	C602.259338,185.652878 596.562073,189.453568 585.171265,188.990005 
	C577.389221,188.673309 571.929321,183.220169 571.031677,174.939865 
	C568.824341,154.576950 581.613525,126.204453 602.991455,117.886108 
z"/>
<path fill="#040404" opacity="1.000000" stroke="none" 
	d="
M427.691406,141.492157 
	C423.137787,163.788498 409.087738,177.834732 389.836517,187.243454 
	C381.643188,191.247818 375.977295,187.359222 375.825104,178.344208 
	C375.615936,165.955017 378.226257,153.862457 380.477814,141.791824 
	C381.170288,138.079636 384.099731,134.760834 386.110107,131.323471 
	C390.051331,124.584740 394.007202,117.853142 398.068512,111.186516 
	C401.756561,105.132584 405.057526,104.302727 410.754883,108.240433 
	C422.188934,116.143089 428.843018,126.624512 427.691406,141.492157 
z"/>
<path fill="#070707" opacity="1.000000" stroke="none" 
	d="
M177.866760,117.893906 
	C181.717957,112.872726 185.477844,108.228439 188.950577,103.378540 
	C190.727097,100.897514 192.673264,100.624352 195.350937,101.459526 
	C200.452576,103.050735 203.538925,106.837997 206.435242,110.966255 
	C207.591934,112.614944 206.932205,113.278526 205.410843,113.804283 
	C196.657913,116.829147 187.912476,119.875862 179.147125,122.864235 
	C177.926071,123.280525 176.299698,123.877625 175.607941,122.305328 
	C174.769211,120.398994 177.040115,119.613564 177.866760,117.893906 
z"/>
<path fill="#EAEAEA" opacity="1.000000" stroke="none" 
	d="
M584.235596,173.031998 
	C584.183289,161.688843 587.244324,151.575165 593.052063,142.272568 
	C593.555908,141.465485 593.913330,140.255081 595.126282,140.634048 
	C596.340210,141.013367 596.095215,142.267181 595.957336,143.203751 
	C594.561401,152.685104 593.298218,162.191742 591.605652,171.620895 
	C590.899475,175.554535 587.616760,176.165558 584.235596,173.031998 
z"/>
<path fill="#EFEFEF" opacity="1.000000" stroke="none" 
	d="
M402.968262,125.792999 
	C404.307861,122.266190 405.977203,122.182358 408.480408,124.285797 
	C414.011871,128.933960 416.116302,137.046936 413.330750,145.245682 
	C409.161377,157.517517 399.955811,165.324692 388.957428,172.590363 
	C387.861603,154.772415 394.017578,140.065384 402.968262,125.792999 
z"/>
</svg>
